<svg width="42" height="46" viewBox="0 0 42 46" fill="none" xmlns="http://www.w3.org/2000/svg">
<path d="M0.2015 46V0.0479965H1.9295C5.3855 0.0479965 8.9055 0.32533 12.4895 0.879997C16.1162 1.392 19.7642 2.224 23.4335 3.376C27.1028 4.528 30.4735 5.40266 33.5455 6C36.6175 6.55466 39.3695 6.85333 41.8015 6.896V35.44H38.9855C37.3215 35.44 35.2948 35.2267 32.9055 34.8C30.5588 34.3307 27.8068 33.6907 24.6495 32.88C21.4922 32.0267 18.4842 31.3867 15.6255 30.96C12.8095 30.5333 10.1428 30.32 7.6255 30.32C7.15617 30.32 6.68683 30.3413 6.2175 30.384C5.79083 30.384 5.34283 30.4053 4.8735 30.448C4.44683 30.448 3.99883 30.4693 3.5295 30.512V46H0.2015Z" fill="#FF0000"/>
</svg>
